<svg width="22" height="29" viewBox="0 0 22 29" fill="none" xmlns="http://www.w3.org/2000/svg">
<path fill-rule="evenodd" clip-rule="evenodd" d="M7.31478 1.1087C6.97666 1.44378 6.70058 2.12309 6.70058 2.62009V3.52278L3.42411 3.60922C1.04991 3.67191 0.110794 3.80583 0.0137496 4.09617C-0.0599548 4.31683 0.170064 4.57217 0.526302 4.66439C1.16876 4.83087 1.17275 4.90057 1.17275 16.0573C1.17275 26.8769 1.19486 27.3045 1.78695 27.8913C2.37198 28.4711 2.81052 28.5 11 28.5C19.1895 28.5 19.628 28.4711 20.213 27.8913C20.8051 27.3045 20.8272 26.8769 20.8272 16.0573C20.8272 4.90057 20.8312 4.83087 21.4737 4.66439C21.8299 4.57217 22.06 4.31683 21.9863 4.09617C21.8892 3.80583 20.9501 3.67191 18.5759 3.60922L15.2994 3.52278V2.62009C15.2994 0.913 14.462 0.5 11 0.5C8.33835 0.5 7.84699 0.581261 7.31478 1.1087ZM14.0145 2.70652L14.1119 3.54348H11.0203C7.98641 3.54348 7.92898 3.53039 7.92898 2.83343C7.92898 2.44265 8.02603 2.02722 8.14457 1.90974C8.2628 1.79226 9.61036 1.73504 11.1388 1.78283C13.9172 1.86957 13.9175 1.86957 14.0145 2.70652ZM19.5258 15.9457L19.4453 27.1304H11H2.55471L2.47425 15.9457L2.39348 4.76087H11H19.6065L19.5258 15.9457ZM6.84891 8.1647C6.76138 8.39083 6.72668 12.0658 6.77183 16.3313C6.84246 22.9861 6.91954 24.087 7.31478 24.087C7.71248 24.087 7.77543 22.9907 7.77543 16.047C7.77543 9.88761 7.68576 7.97752 7.39186 7.88043C7.18058 7.81074 6.93643 7.93857 6.84891 8.1647ZM10.5341 8.1647C10.4466 8.39083 10.4119 12.0658 10.457 16.3313C10.5277 22.9861 10.6048 24.087 11 24.087C11.3977 24.087 11.4607 22.9907 11.4607 16.047C11.4607 9.88761 11.371 7.97752 11.0771 7.88043C10.8658 7.81074 10.6217 7.93857 10.5341 8.1647ZM14.2193 8.1647C14.1318 8.39083 14.0971 12.0658 14.1423 16.3313C14.2129 22.9861 14.29 24.087 14.6852 24.087C15.0829 24.087 15.1459 22.9907 15.1459 16.047C15.1459 9.88761 15.0562 7.97752 14.7623 7.88043C14.551 7.81074 14.3069 7.93857 14.2193 8.1647Z" fill="#0C6AAE"/>
</svg>
