<svg width="72" height="92" viewBox="0 0 72 92" fill="none" xmlns="http://www.w3.org/2000/svg">
<path fill-rule="evenodd" clip-rule="evenodd" d="M23.8188 2C22.7178 3.101 21.8188 5.333 21.8188 6.966V9.932L11.1498 10.216C3.41877 10.422 0.360772 10.862 0.0447721 11.816C-0.195228 12.541 0.553773 13.38 1.71377 13.683C3.80577 14.23 3.81877 14.459 3.81877 51.117C3.81877 86.667 3.89077 88.072 5.81877 90C7.72377 91.905 9.15177 92 35.8188 92C62.4858 92 63.9138 91.905 65.8188 90C67.7468 88.072 67.8188 86.667 67.8188 51.117C67.8188 14.459 67.8318 14.23 69.9238 13.683C71.0838 13.38 71.8328 12.541 71.5928 11.816C71.2768 10.862 68.2188 10.422 60.4878 10.216L49.8188 9.932V6.966C49.8188 1.357 47.0918 0 35.8188 0C27.1518 0 25.5518 0.267 23.8188 2ZM45.6348 7.25L45.9518 10H35.8848C26.0058 10 25.8188 9.957 25.8188 7.667C25.8188 6.383 26.1348 5.018 26.5208 4.632C26.9058 4.246 31.2938 4.058 36.2708 4.215C45.3178 4.5 45.3188 4.5 45.6348 7.25ZM63.5808 50.75L63.3188 87.5H35.8188H8.31877L8.05677 50.75L7.79377 14H35.8188H63.8438L63.5808 50.75ZM22.3018 25.184C22.0168 25.927 21.9038 38.002 22.0508 52.017C22.2808 73.883 22.5318 77.5 23.8188 77.5C25.1138 77.5 25.3188 73.898 25.3188 51.083C25.3188 30.845 25.0268 24.569 24.0698 24.25C23.3818 24.021 22.5868 24.441 22.3018 25.184ZM34.3018 25.184C34.0168 25.927 33.9038 38.002 34.0508 52.017C34.2808 73.883 34.5318 77.5 35.8188 77.5C37.1138 77.5 37.3188 73.898 37.3188 51.083C37.3188 30.845 37.0268 24.569 36.0698 24.25C35.3818 24.021 34.5868 24.441 34.3018 25.184ZM46.3018 25.184C46.0168 25.927 45.9038 38.002 46.0508 52.017C46.2808 73.883 46.5318 77.5 47.8188 77.5C49.1138 77.5 49.3188 73.898 49.3188 51.083C49.3188 30.845 49.0268 24.569 48.0698 24.25C47.3818 24.021 46.5868 24.441 46.3018 25.184Z" fill="#925700"/>
</svg>
