<svg width="26" height="27" viewBox="0 0 26 27" fill="none" xmlns="http://www.w3.org/2000/svg">
<path fill-rule="evenodd" clip-rule="evenodd" d="M9.77042 0.818505C3.36144 2.44379 -0.921826 9.00665 0.169869 15.5283C1.59308 24.0295 10.7221 28.8915 18.5367 25.3101C20.4774 24.4206 23.2421 21.8397 24.3718 19.8629C26.1652 16.7253 26.5186 12.1924 25.2249 8.91678C24.4474 6.94795 24.1255 6.539 23.6579 6.92748C23.3818 7.15698 23.4651 7.6066 24.0414 8.99272C25.0397 11.3938 25.0826 15.3653 24.1357 17.7323C22.8608 20.9206 20.4536 23.3305 17.2688 24.6068C16.0422 25.0986 15.1266 25.2331 13.0077 25.2331C10.8888 25.2331 9.97325 25.0986 8.74662 24.6068C5.56187 23.3305 3.15463 20.9206 1.87971 17.7323C0.993114 15.5158 0.993114 11.4171 1.87971 9.2006C3.15548 6.01004 5.56812 3.59642 8.74662 2.32947C9.92468 1.85994 10.938 1.70153 12.8657 1.68561C15.8434 1.66087 17.6234 2.17447 19.7122 3.66126C21.0544 4.61653 21.7998 4.62734 21.4393 3.68629C21.2209 3.11694 19.1889 1.83975 17.4333 1.16887C15.5394 0.444817 11.901 0.278449 9.77042 0.818505ZM17.8449 10.1869L12.4018 16.6058L10.0926 14.4786C8.21285 12.7469 7.70777 12.4142 7.3771 12.6889C7.03991 12.9693 7.41318 13.4511 9.57186 15.5217C11.0027 16.8939 12.2927 18.0167 12.4387 18.0167C12.831 18.0167 24.1156 4.59491 24.0042 4.26047C23.952 4.10349 23.7693 3.92831 23.5983 3.87114C23.4276 3.81427 20.8385 6.65617 17.8449 10.1869Z" fill="#486E52"/>
</svg>
