<svg width="26" height="33" viewBox="0 0 26 33" fill="none" xmlns="http://www.w3.org/2000/svg">
<path fill-rule="evenodd" clip-rule="evenodd" d="M1.31314 9.53906H10.0267C10.1459 9.53906 10.243 9.36625 10.2424 9.15377C10.2424 8.94034 10.1459 8.76562 10.0267 8.76562H1.31314V9.53906Z" fill="#486E52"/>
<path d="M9.88552 17.224C9.68185 17.0197 9.35547 17.0197 9.1518 17.224C8.9494 17.4282 8.9494 17.7588 9.1518 17.9643L12.6344 21.4773C12.7318 21.5769 12.8634 21.6318 13.0013 21.6318C13.1392 21.6318 13.2695 21.5769 13.3681 21.4773L16.8482 17.9643C17.0506 17.7588 17.0506 17.4282 16.8482 17.224C16.6458 17.0197 16.3182 17.0197 16.1145 17.224L13.5199 19.8459V0.523374C13.5199 0.234883 13.2872 0 13.0013 0C12.7154 0 12.4826 0.234883 12.4826 0.523374V19.8459L9.88552 17.224Z" fill="#486E52"/>
<path fill-rule="evenodd" clip-rule="evenodd" d="M25.9738 17.3699C25.9723 17.3805 25.975 17.3908 25.9778 17.4012C25.9812 17.4142 25.9846 17.4272 25.9795 17.4405L21.2785 32.671C21.2182 32.8657 21.0395 33 20.8335 33H5.1654C4.96051 33 4.78067 32.8657 4.72034 32.6699L0.021628 17.4394C0.0173942 17.4267 0.0205526 17.4143 0.0237596 17.4017C0.026588 17.3906 0.0294542 17.3793 0.0273205 17.3676C0.0257692 17.3573 0.0199892 17.3481 0.0141427 17.3388C0.00711937 17.3277 0 17.3164 0 17.3028V7.90191C0 7.64463 0.209439 7.4352 0.466684 7.4352H10.5742C10.7787 7.43516 10.9517 7.6919 10.9517 7.90191C10.9517 8.11191 10.8271 8.35772 10.5742 8.36865H0.933368V17.3028L5.50915 32.0677H20.4897L25.0689 17.1115V8.36865L15.3069 8.34243C15.3069 8.34243 15 8.25859 15 7.90191C15 7.54522 15.3069 7.43518 15.3069 7.43518L25.5345 7.4352C25.7928 7.4352 26 7.64463 26 7.90191V17.3028C26 17.3171 25.9932 17.3286 25.9865 17.3401C25.9809 17.3496 25.9754 17.3591 25.9738 17.3699Z" fill="#486E52"/>
</svg>
