<svg width="206" height="186" viewBox="0 0 206 186" fill="none" xmlns="http://www.w3.org/2000/svg">
<path d="M176.513 178.288C122.74 180.435 72.7071 180.111 28.8077 175.73C16.6219 174.514 7.24981 166.991 6.23481 157.776C1.75235 117.115 -1.34045 78.9599 0.580604 49.8267C1.20949 40.2805 10.9065 32.5073 23.4994 31.2398C74.5115 26.109 126.9 24.8694 180.473 26.983C194.316 27.5274 205.264 35.9865 205.535 46.4145C206.63 88.7596 206 128.145 201.37 160.68C199.994 170.349 189.417 177.773 176.513 178.288Z" fill="#CED983"/>
<path d="M201.535 80.9588C201.053 78.449 198.976 76.5572 196.433 76.3227C188.287 75.5759 189.318 76.3317 179.381 76.5336C171.099 82.5631 170.499 128.371 160.609 128.373C153.678 128.374 127.712 118.871 120.305 118.972C111.732 119.089 90.7265 127.046 81.658 127.267C73.9286 121.737 67.0598 90.7711 62.3344 78.053C58.4696 75.7698 49.6325 76.3611 44.534 76.5336C41.3318 76.6412 38.8672 79.3574 39.0056 82.5631C39.197 86.9735 40.042 91.7378 41.1433 96.6408C41.6453 98.8777 43.4224 100.606 45.675 101.028C46.4096 101.165 47.1693 101.293 47.9276 101.423C51.9646 123.726 59.1493 150.076 67.0598 177.362C67.7386 179.699 69.6348 181.496 72.0155 181.986C94.163 186.535 130.316 185.323 168.657 183.213C171.344 183.064 173.693 181.3 174.549 178.745C182.595 154.742 188.461 129.404 192.29 102.821C193.221 102.782 194.147 102.741 195.077 102.701C197.51 102.597 199.65 100.973 200.311 98.6285C202.053 92.4574 202.607 86.5356 201.535 80.9588Z" fill="#486E52"/>
<path d="M176.068 124.502C176.068 124.502 171.987 119.117 166.81 117.486C160.397 115.467 157.444 119.015 157.444 119.015C157.444 119.015 153.242 106.29 140.635 105.148C128.029 104.01 120.201 114.363 120.201 114.363C120.201 114.363 113.74 107.428 99.6714 109.992C86.6358 112.369 83.4852 123.386 83.4852 123.386C83.4852 123.386 80.0017 114.363 66.7512 124.577C71.1681 147.726 67.7799 131.476 74.5479 162.766C75.1295 165.459 76.7608 167.527 78.8072 168.091C97.832 173.33 128.893 171.935 161.835 169.503C164.142 169.334 166.16 167.302 166.897 164.36C173.947 136.162 169.443 155.468 176.068 124.502Z" fill="#4F2202"/>
<path d="M150.262 135.156C150.619 135.029 151.002 134.962 151.371 135.045C152.112 135.21 152.408 135.808 152.54 136.471C152.623 136.897 152.315 137.289 151.884 137.33C149.433 137.562 147.127 139.136 146.067 141.369C145.946 141.623 145.836 141.89 145.634 142.086C145.495 142.22 145.058 142.45 144.9 142.233C144.802 142.098 144.989 141.475 145.021 141.313C145.147 140.681 145.35 140.065 145.621 139.48C146.167 138.3 146.987 137.245 148 136.43C148.678 135.886 149.442 135.448 150.262 135.156Z" fill="#B7601F"/>
<path d="M140.908 143.8C141.136 147.588 138.88 151.012 135.073 152.655C138.672 154.117 142.27 155.578 145.868 157.039C144.476 152.304 146.181 147.557 150.243 144.857C147.161 143.777 144.08 142.697 140.999 141.618C140.752 141.532 140.473 141.401 140.233 141.387C140.181 141.671 140.593 142.193 140.692 142.513C140.826 142.944 140.882 143.375 140.908 143.8Z" fill="#FFCF85"/>
<path d="M148.089 154.664C147.874 154.686 147.658 154.727 147.448 154.777C146.716 154.952 145.963 155.216 145.263 155.075C143.484 154.72 142.894 152.005 141.151 151.524C139.945 151.192 138.489 152.037 137.362 151.495C136.712 151.183 136.315 150.471 135.895 149.834C135.474 149.198 134.935 148.573 134.203 148.544C133.976 148.535 133.749 148.589 133.531 148.69C133.267 148.814 133.085 149.074 133.064 149.366C132.855 152.268 133.182 154.71 134.123 155.544C135.768 157.001 137.474 157.028 138.468 156.867C139.006 156.78 139.547 156.965 139.903 157.379C140.83 158.459 142.767 160.249 144.849 159.362C145.727 158.987 147.229 157.742 148.782 156.034C149.292 155.472 148.843 154.587 148.089 154.664Z" fill="#FE4343"/>
<path d="M153.33 141.807C151.493 139.294 148.009 140.181 146.202 140.875C145.559 141.122 144.921 140.81 144.698 140.136C143.967 137.923 142.037 133.768 138.366 136.211C136.881 137.198 135.673 139.167 134.781 141.49C134.568 142.047 135.015 142.631 135.61 142.584C136.767 142.49 138.091 141.905 139.017 142.549C139.712 143.034 139.956 144.082 140.601 144.645C141.928 145.804 144.314 144.478 145.594 145.702C146.279 146.357 146.51 147.649 147.402 147.895C148.237 148.125 149.212 147.28 150.04 147.529C150.945 147.8 151.112 149.139 151.671 149.966C151.676 149.974 151.681 149.982 151.687 149.989C152.028 150.482 152.795 150.391 153.054 149.85C154.433 146.972 154.936 144.002 153.33 141.807Z" fill="#FE4343"/>
<g opacity="0.5">
<path d="M140.65 137.131C139.492 137.122 138.376 137.692 137.567 138.522C137.338 138.756 137.126 139.02 137.031 139.334C136.935 139.648 136.978 140.02 137.208 140.253C137.402 140.449 137.688 140.516 137.961 140.55C138.842 140.657 139.771 140.484 140.505 139.985C141.126 139.562 141.551 138.925 141.725 138.196C141.913 137.403 141.42 137.136 140.65 137.131Z" fill="#F9F5F1"/>
</g>
<path d="M121.373 131.727C121.526 130.255 120.429 129.037 119.019 128.728C116.633 128.209 114.222 128.723 112.231 129.941C110.079 131.258 108.923 133.455 108.331 135.86C107.796 138.035 107.346 140.14 105.315 141.367C103.728 142.325 101.772 142.305 100.034 141.553C96.8658 140.184 94.9781 144.976 98.1605 146.35C103.367 148.601 109.253 146.794 111.894 142.044C113.033 139.999 112.928 137.324 114.187 135.405C115.071 134.059 116.776 133.54 118.477 133.91C119.883 134.216 121.234 133.066 121.373 131.727Z" fill="#FFBB58"/>
<path d="M151.9 138.667C152.012 139.435 152.201 140.202 152.576 140.882C153.247 142.097 154.438 142.915 155.453 143.86C156.94 145.247 157.435 148.527 157.673 151.547C157.78 152.898 159.613 153.231 160.207 152.012C160.582 151.235 160.886 150.598 161.03 150.343C162.28 148.159 163.5 145.917 164.101 143.473C165.383 138.263 163.505 132.403 159.432 128.916C158.578 128.184 157.576 127.5 156.45 127.295C155.347 127.095 154.602 127.99 154.14 128.913C153.247 130.69 152.348 132.695 151.986 134.655C151.741 135.976 151.706 137.337 151.9 138.667Z" fill="#486E52"/>
<path d="M97.384 153.873C96.8555 153.306 96.2636 152.782 95.5702 152.437C94.3276 151.821 92.8818 151.828 91.5111 151.631C89.5014 151.339 87.2297 148.926 85.3143 146.579C84.4574 145.529 82.7613 146.302 82.9689 147.642C83.1014 148.496 83.2148 149.192 83.2413 149.482C83.4563 151.993 83.7272 154.53 84.6223 156.883C86.5318 161.895 91.408 165.639 96.7392 166.185C97.8551 166.3 99.0698 166.289 100.114 165.816C101.132 165.35 101.235 164.19 101.093 163.169C100.814 161.199 100.412 159.036 99.5954 157.219C99.0462 155.992 98.2998 154.856 97.384 153.873Z" fill="#486E52"/>
<path d="M23.2137 19.1445C21.5277 17.5203 19.8417 15.8975 18.1571 14.2733C17.7331 13.8666 17.1452 13.6093 16.553 13.6093C15.9968 13.6093 15.3327 13.8565 14.949 14.2733C14.5523 14.7074 14.2576 15.2752 14.2835 15.8803C14.3108 16.4753 14.5091 17.0603 14.949 17.4829C16.635 19.1071 18.3195 20.7299 20.0055 22.3512C20.4296 22.7623 21.016 23.0167 21.6096 23.0167C22.1659 23.0167 22.8299 22.7695 23.2137 22.3512C23.6104 21.92 23.9051 21.3523 23.8777 20.7486C23.8504 20.1521 23.6535 19.5671 23.2137 19.1445ZM11.6747 35.0329C10.5866 35.0774 9.5 35.0243 8.42056 34.8963C7.55384 34.7612 6.69719 34.5787 5.8549 34.3343C4.71509 34.0037 3.3338 34.7368 3.06358 35.9197C2.78761 37.1328 3.42723 38.356 4.64753 38.7096C6.91279 39.3679 9.31602 39.6683 11.6747 39.5706C12.8576 39.5217 13.9989 38.5616 13.9428 37.301C13.8896 36.1152 12.9424 34.9797 11.6747 35.0329ZM22.3901 57.0745C21.9575 56.6764 21.3897 56.3817 20.786 56.409C20.2039 56.4349 19.5815 56.6246 19.1805 57.0745C18.1427 58.2402 17.1035 59.4073 16.0644 60.5745C15.6633 61.0258 15.4003 61.5619 15.4003 62.1785C15.4003 62.7348 15.6475 63.4003 16.0644 63.784C16.497 64.1793 17.0647 64.474 17.6699 64.4481C18.2505 64.4208 18.8729 64.2325 19.2739 63.784C20.3117 62.6155 21.3509 61.4498 22.3901 60.2827C22.7911 59.8314 23.0556 59.2952 23.0556 58.6786C23.0556 58.1209 22.8084 57.4569 22.3901 57.0745ZM40.548 64.6177C39.2645 64.6752 38.346 65.6152 38.2785 66.8873C38.175 68.8334 38.0729 70.7825 37.9709 72.7286C37.9077 73.9159 39.0575 75.0514 40.239 74.9982C41.5211 74.9407 42.4396 74.0007 42.5071 72.7286C42.6106 70.7825 42.7127 68.8334 42.8176 66.8873C42.8794 65.7 41.7281 64.566 40.548 64.6177ZM69.3107 60.8231C67.6362 59.4447 65.9617 58.0677 64.2886 56.6893C63.8114 56.2969 63.3242 56.0253 62.6846 56.0253C62.1283 56.0253 61.4628 56.2725 61.0805 56.6893C60.6823 57.122 60.3877 57.6897 60.4164 58.2934C60.4409 58.8612 60.622 59.5223 61.0805 59.8989C62.7536 61.2759 64.4281 62.6543 66.1026 64.0313C66.5798 64.4251 67.0656 64.6953 67.7066 64.6953C68.2629 64.6953 68.9284 64.4495 69.3107 64.0313C69.7074 63.6001 70.0021 63.0309 69.9748 62.4272C69.9503 61.8609 69.7678 61.1997 69.3107 60.8231ZM77.8428 34.0756C77.1054 34.0411 76.3695 33.9937 75.6365 33.9261C75.2973 33.8959 74.958 33.8614 74.6217 33.8226C74.4507 33.804 74.2825 33.7853 74.1129 33.7637C74.0583 33.7565 74.0022 33.7479 73.9462 33.7407C72.5189 33.5265 71.1017 33.2721 69.6959 32.943C68.5417 32.6713 67.1849 33.3009 66.9046 34.5269C66.6401 35.6883 67.2539 37.0279 68.49 37.3183C71.5559 38.0369 74.6964 38.4696 77.8428 38.6133C79.03 38.6679 80.1641 37.531 80.1109 36.3452C80.0549 35.0688 79.1148 34.1345 77.8428 34.0756ZM69.5191 12.5327C69.0865 12.1374 68.5202 11.8428 67.9151 11.8687C67.7138 11.896 67.5126 11.9233 67.3114 11.9506C66.9276 12.057 66.5941 12.2524 66.3095 12.5327C64.0069 14.3696 61.9127 16.4552 60.0686 18.7507C59.6776 19.235 59.4031 19.7079 59.4031 20.3547C59.4031 20.911 59.6503 21.575 60.0686 21.9588C60.4998 22.3555 61.0676 22.6502 61.6727 22.6243C62.2347 22.5984 62.9074 22.4188 63.2768 21.9588C65.1209 19.6634 67.2151 17.5778 69.5191 15.7423C69.9446 15.4031 70.1846 14.6542 70.1846 14.1382C70.1846 13.582 69.9374 12.9165 69.5191 12.5327ZM41.0612 0.00196075C39.8323 0.0565796 38.7916 0.998039 38.7916 2.27009V9.86069C38.7916 11.0465 39.8351 12.1834 41.0612 12.1288C42.2887 12.0742 43.3293 11.1327 43.3293 9.86069V2.27009C43.3293 1.08428 42.2872 -0.0526581 41.0612 0.00196075ZM59.8041 41.6346C59.8041 52.097 52.6217 58.5665 42.1593 58.5665C31.6969 58.5665 23.2166 50.0847 23.2166 39.6238C23.2166 29.1628 31.6969 23.5111 42.1593 23.5111C52.6217 23.5111 59.8041 31.1736 59.8041 41.6346Z" fill="#AE9E0C"/>
</svg>
