<svg width="72" height="93" viewBox="0 0 72 93" fill="none" xmlns="http://www.w3.org/2000/svg">
<path fill-rule="evenodd" clip-rule="evenodd" d="M23.8188 2.5C22.7178 3.601 21.8188 5.833 21.8188 7.466V10.432L11.1498 10.716C3.41877 10.922 0.360772 11.362 0.0447721 12.316C-0.195228 13.041 0.553773 13.88 1.71377 14.183C3.80577 14.73 3.81877 14.959 3.81877 51.617C3.81877 87.167 3.89077 88.572 5.81877 90.5C7.72377 92.405 9.15177 92.5 35.8188 92.5C62.4858 92.5 63.9138 92.405 65.8188 90.5C67.7468 88.572 67.8188 87.167 67.8188 51.617C67.8188 14.959 67.8318 14.73 69.9238 14.183C71.0838 13.88 71.8328 13.041 71.5928 12.316C71.2768 11.362 68.2188 10.922 60.4878 10.716L49.8188 10.432V7.466C49.8188 1.857 47.0918 0.5 35.8188 0.5C27.1518 0.5 25.5518 0.767 23.8188 2.5ZM45.6348 7.75L45.9518 10.5H35.8848C26.0058 10.5 25.8188 10.457 25.8188 8.167C25.8188 6.883 26.1348 5.518 26.5208 5.132C26.9058 4.746 31.2938 4.558 36.2708 4.715C45.3178 5 45.3188 5 45.6348 7.75ZM63.5808 51.25L63.3188 88H35.8188H8.31877L8.05677 51.25L7.79377 14.5H35.8188H63.8438L63.5808 51.25ZM22.3018 25.684C22.0168 26.427 21.9038 38.502 22.0508 52.517C22.2808 74.383 22.5318 78 23.8188 78C25.1138 78 25.3188 74.398 25.3188 51.583C25.3188 31.345 25.0268 25.069 24.0698 24.75C23.3818 24.521 22.5868 24.941 22.3018 25.684ZM34.3018 25.684C34.0168 26.427 33.9038 38.502 34.0508 52.517C34.2808 74.383 34.5318 78 35.8188 78C37.1138 78 37.3188 74.398 37.3188 51.583C37.3188 31.345 37.0268 25.069 36.0698 24.75C35.3818 24.521 34.5868 24.941 34.3018 25.684ZM46.3018 25.684C46.0168 26.427 45.9038 38.502 46.0508 52.517C46.2808 74.383 46.5318 78 47.8188 78C49.1138 78 49.3188 74.398 49.3188 51.583C49.3188 31.345 49.0268 25.069 48.0698 24.75C47.3818 24.521 46.5868 24.941 46.3018 25.684Z" fill="#486E52"/>
</svg>
