<svg width="23" height="23" viewBox="0 0 23 23" fill="none" xmlns="http://www.w3.org/2000/svg">
<path d="M11.6299 0.000976562L11.4189 0C5.23693 0 0.115933 5.02895 0.00193329 11.213C-0.113067 17.511 4.91693 22.727 11.2149 22.842L11.4259 22.843C17.6079 22.843 22.7289 17.812 22.8419 11.63C22.9569 5.33201 17.9269 0.116977 11.6299 0.000976562ZM11.4269 22.0229L11.2299 22.02C5.38593 21.916 0.715932 17.074 0.822932 11.229C0.926932 5.489 5.68193 0.820007 11.4189 0.820007L11.6159 0.82196C17.4599 0.92696 22.1289 5.768 22.0229 11.612C21.9189 17.353 17.1649 22.0229 11.4269 22.0229Z" fill="#486E52"/>
<path d="M12 17.6036V10.4308C12 10.2835 11.7744 10 11.5 10C11.2256 10 11 10.2835 11 10.4308V17.6036C11 17.7516 11.2256 18 11.5 18C11.7744 18 12 17.7509 12 17.6036Z" fill="#486E52"/>
<path d="M12.2429 7.68545C12.6082 7.29405 12.6082 6.70598 12.2429 6.31458C11.8515 5.89516 11.1653 5.89516 10.7739 6.31458C10.4087 6.70598 10.4087 7.29405 10.7739 7.68545C11.1653 8.10487 11.8515 8.10487 12.2429 7.68545Z" fill="#486E52"/>
</svg>
