<svg width="24" height="23" viewBox="0 0 24 23" fill="none" xmlns="http://www.w3.org/2000/svg">
<path d="M16.182 14.896C16.115 14.834 16.0303 14.818 15.9446 14.802C17.5415 13.165 18.4366 11.063 18.4366 8.815C18.4387 6.462 17.4787 4.24798 15.7386 2.58398C13.9963 0.916984 11.68 0 9.21936 0C6.75661 0 4.44237 0.916984 2.69806 2.58398C0.95793 4.24798 -0.00208809 6.46296 3.41023e-06 8.81696C3.41023e-06 11.171 0.960019 13.386 2.70224 15.05C4.44237 16.715 6.75661 17.632 9.21936 17.632C11.5681 17.632 13.7684 16.776 15.4771 15.251C15.4938 15.332 15.5095 15.413 15.5733 15.476L23.0348 22.609C23.1164 22.688 23.2272 22.729 23.337 22.729C23.4468 22.729 23.5556 22.688 23.6392 22.609C23.8066 22.449 23.8066 22.19 23.6392 22.03L16.182 14.896ZM15.131 14.471C13.5519 15.98 11.452 16.813 9.22041 16.813C6.98878 16.813 4.88784 15.98 3.30771 14.471C1.72863 12.96 0.858581 10.953 0.858581 8.81696C0.856489 6.68096 1.72655 4.67296 3.30564 3.16296C4.88681 1.65196 6.98773 0.81897 9.22041 0.81897C11.4531 0.81897 13.553 1.65196 15.1331 3.16296C16.7122 4.67396 17.5822 6.681 17.5822 8.815C17.5812 10.951 16.709 12.958 15.131 14.471Z" fill="#486E52"/>
<path d="M2.25883 8.81897H3.11424C3.11424 5.60097 5.85517 2.98096 9.21936 2.98096V2.16199C5.38145 2.16199 2.25883 5.14797 2.25883 8.81897Z" fill="#486E52"/>
</svg>
