<svg width="23" height="23" viewBox="0 0 23 23" fill="none" xmlns="http://www.w3.org/2000/svg">
<path d="M22.169 0.0271108L15.013 2.69007L7.853 0.0271108C7.839 0.0191108 7.824 0.0251059 7.806 0.0221059C7.773 0.0131059 7.74399 0.010082 7.70999 0.010082C7.67599 0.010082 7.64598 0.0131059 7.61398 0.0221059C7.59598 0.0251059 7.58099 0.0191108 7.56699 0.0271108L0.268005 2.74409C0.108005 2.80209 0 2.95712 0 3.12812V21.6491C0 21.7841 0.0659949 21.9081 0.175995 21.9861C0.245995 22.0331 0.325989 22.0591 0.40799 22.0591C0.45899 22.0591 0.504009 22.0501 0.553009 22.0331L7.70898 19.3681L14.867 22.0331C14.916 22.0511 14.965 22.0591 15.012 22.0591C15.059 22.0591 15.108 22.0501 15.155 22.0331L22.454 19.3141C22.616 19.2551 22.722 19.1021 22.722 18.9301V0.411083C22.722 0.276083 22.658 0.151084 22.546 0.0750845C22.437 -0.00191554 22.296 -0.0228892 22.169 0.0271108ZM7.29999 18.6451L0.820007 21.0581V3.41212L7.29999 1.00111V18.6451ZM14.603 21.0581L8.121 18.6451V1.00007L14.603 3.41108V21.0581ZM21.904 18.6451L15.424 21.0581V3.41212L21.904 1.00111V18.6451Z" fill="#486E52"/>
</svg>
