<svg width="44" height="43" viewBox="0 0 44 43" fill="none" xmlns="http://www.w3.org/2000/svg">
<path fill-rule="evenodd" clip-rule="evenodd" d="M0.35558 0.68163C0.159959 0.877985 0 2.20919 0 3.63963C0 5.72141 0.192474 6.29095 0.965519 6.49469C1.81356 6.71797 2.22473 8.86204 4.34615 24.1313C5.67407 33.692 6.90548 41.75 7.08275 42.0381C7.4934 42.7074 36.5324 42.7534 36.9425 42.0851C37.1041 41.8228 37.821 37.4882 38.5364 32.4521C40.4281 19.1364 40.2817 19.7619 41.4167 20.1245C42.957 20.6164 43.3251 19.291 41.9574 18.1768C40.749 17.1918 40.7464 17.1602 41.4025 11.9757C41.9616 7.5604 42.2191 6.72325 43.087 6.49469C43.9692 6.26297 44.0898 5.83384 43.9519 3.41213L43.7919 0.599287L22.2515 0.461522C10.4041 0.386042 0.550677 0.484747 0.35558 0.68163ZM41.9563 3.48655C41.9563 4.45936 41.5231 4.53589 35.2695 4.67418C29.7407 4.79664 28.5827 4.95922 28.5827 5.61373C28.5827 6.25981 29.6306 6.43294 34.2699 6.55592L39.9571 6.70636L39.6078 9.72294C39.4159 11.3819 39.0986 13.4986 38.9029 14.426L38.5474 16.1124L31.506 11.9926C26.7314 9.19933 24.3174 7.47172 24.0064 6.62665C23.2123 4.46569 21.1974 3.88507 19.7043 5.38729C17.9421 7.16135 19.3581 9.92774 21.9384 9.75092C22.8594 9.68758 25.9133 11.1602 30.8662 14.0549C38.2846 18.3905 38.3906 18.4787 38.1341 20.0838C37.9909 20.9796 37.4549 24.9737 36.9425 28.9589L36.0111 36.205L26.5279 36.3486C18.5117 36.47 17.0448 36.6146 17.0448 37.2839C17.0448 37.9527 18.4964 38.0978 26.39 38.2198C34.916 38.3517 35.72 38.4441 35.5606 39.2755C35.4012 40.1105 34.2641 40.187 22.0271 40.187C9.8933 40.187 8.65192 40.1052 8.49668 39.2934C8.35875 38.5708 8.8082 38.3692 10.8499 38.2377C12.6719 38.1205 13.3736 37.8556 13.3736 37.2839C13.3736 36.7054 12.6614 36.4505 10.7293 36.3365L8.08446 36.1807L6.3417 23.4045C5.38299 16.3774 4.47779 9.74564 4.33042 8.66727L4.06242 6.70636L9.7669 6.55592C14.4214 6.43294 15.4714 6.25981 15.4714 5.61373C15.4714 4.95922 14.3134 4.79664 8.7846 4.67418C2.53101 4.53589 2.09782 4.45936 2.09782 3.48655C2.09782 2.47047 2.54832 2.44672 22.0271 2.44672C41.5058 2.44672 41.9563 2.47047 41.9563 3.48655Z" fill="#486E52"/>
</svg>
