<svg width="22" height="22" viewBox="0 0 22 22" fill="none" xmlns="http://www.w3.org/2000/svg">
<path fill-rule="evenodd" clip-rule="evenodd" d="M18.6377 3.06976L18.7833 3.21187C20.8587 5.29721 22.0032 8.0635 22 11.0089C21.9988 13.9521 20.852 16.7182 18.7715 18.7998C14.5563 23.0151 7.64017 23.0739 3.35623 18.9301L3.21136 18.7887C-1.07532 14.488 -1.06974 7.49651 3.22385 3.20139C7.44045 -1.01527 14.3538 -1.07403 18.6377 3.06976ZM11.3928 10.6068L16.3002 10.6104C16.5168 10.6107 16.6957 10.7863 16.6961 11.0054C16.6944 11.2238 16.5176 11.4002 16.3003 11.3992L11.3929 11.3956L10.6019 11.3951L5.69451 11.3915C5.58824 11.392 5.4914 11.348 5.42071 11.2796C5.34657 11.2079 5.29986 11.1077 5.29927 10.9958C5.30022 10.7767 5.47636 10.601 5.69505 10.6006L10.6018 10.6049L11.3928 10.6068Z" fill="#486E52"/>
</svg>
