<svg width="30" height="30" viewBox="0 0 30 30" fill="none" xmlns="http://www.w3.org/2000/svg">
<path d="M25.5975 25.6361C28.4346 22.7976 29.9984 19.0256 30 15.0121M25.5975 25.6361L25.244 25.2826C27.9874 22.5377 29.4985 18.8928 29.5 15.0119V15.0115C29.5042 11.1291 27.9972 7.48488 25.2617 4.73507L25.0675 4.54542C25.0672 4.54518 25.067 4.54493 25.0667 4.54469C19.4212 -0.9153 10.3066 -0.837829 4.74977 4.71902C-0.909392 10.3802 -0.917471 19.5961 4.73087 25.2655L4.9243 25.4544C4.92455 25.4546 4.9248 25.4549 4.92504 25.4551C10.5706 30.9151 19.6889 30.8375 25.2439 25.2826L30 15.0121M25.5975 25.6361C19.8494 31.3842 10.4184 31.4644 4.57667 25.8138M25.5975 25.6361L4.57667 25.8138M30 15.0121C30.0043 10.9957 28.4437 7.22347 25.6136 4.37982L30 15.0121ZM4.57667 25.8138L4.37913 25.6209L4.57667 25.8138ZM29.4223 15.0111C29.4272 11.1517 27.9304 7.51989 25.2041 4.78988L25.2014 4.78728L25.0171 4.60538L25.0171 4.60536L25.0135 4.60191C19.3941 -0.833689 10.3309 -0.755005 4.80182 4.77583C-0.828043 10.4055 -0.834803 19.5724 4.78757 25.2079L4.7885 25.2088L4.97192 25.3917L4.97188 25.3917L4.97733 25.397C10.5958 30.8316 19.6627 30.7548 25.1936 25.224L25.1937 25.2239C27.917 22.4992 29.4211 18.8703 29.4223 15.0111ZM29.4223 15.0111L28.9223 15.0105L29.4223 15.0106C29.4223 15.0108 29.4223 15.0109 29.4223 15.0111ZM7.39188 15.3813C7.48827 15.4746 7.62032 15.5346 7.76524 15.5339L22.2277 15.5444C22.5241 15.5457 22.7651 15.3051 22.7674 15.0073M7.39188 15.3813L7.73951 15.0219C7.74454 15.0268 7.74988 15.0301 7.75424 15.032C7.75814 15.0336 7.76082 15.0339 7.76292 15.0339L7.7656 15.0339L22.228 15.0444L22.2299 15.0444C22.2465 15.0445 22.2659 15.0305 22.2673 15.006M7.39188 15.3813C7.29077 15.2835 7.22708 15.1469 7.22628 14.9943M7.39188 15.3813L7.73951 15.0219C7.73479 15.0174 7.73152 15.0125 7.72949 15.0078C7.72786 15.0041 7.72664 14.9997 7.72634 14.9941M22.2673 15.006C22.2673 15.0067 22.2674 15.0075 22.2674 15.0083L22.7674 15.0073M22.2673 15.006C22.2673 15.0052 22.2674 15.0044 22.2674 15.0036L22.7674 15.0073M22.2673 15.006C22.2668 14.9966 22.2632 14.9884 22.2557 14.981C22.2473 14.9727 22.2374 14.9688 22.227 14.9687H22.2271L22.2275 14.4687M22.7674 15.0073C22.7668 14.7086 22.5229 14.4691 22.2275 14.4687M22.2275 14.4687L22.2268 14.9687L15.5353 14.9637L15.5345 14.9637L14.4565 14.9612L14.4569 14.4612M22.2275 14.4687L15.5356 14.4637L14.4569 14.4612M14.4569 14.4612L7.76598 14.4554M14.4569 14.4612L14.4558 14.9612L7.76692 14.9554L7.76598 14.4554M7.76598 14.4554C7.46777 14.4559 7.22758 14.6955 7.22628 14.9943M7.76598 14.4554L7.76554 14.9554L7.76658 14.9554C7.74457 14.9556 7.72754 14.9713 7.72634 14.9941M7.22628 14.9943L7.72627 14.9917C7.72628 14.9925 7.7263 14.9933 7.72634 14.9941M7.22628 14.9943L7.72628 14.9965C7.72628 14.9957 7.7263 14.9949 7.72634 14.9941" fill="#486E52" stroke="#486E52"/>
</svg>
