<svg width="30" height="30" viewBox="0 0 30 30" fill="none" xmlns="http://www.w3.org/2000/svg">
<path d="M25.6136 4.37982L25.4151 4.18604C19.5734 -1.46458 10.1461 -1.38446 4.39615 4.36553C-1.45874 10.2225 -1.46635 19.7563 4.37913 25.6209L4.57667 25.8138C10.4184 31.4644 19.8494 31.3842 25.5975 25.6361C28.4346 22.7976 29.9984 19.0256 30 15.0121C30.0043 10.9957 28.4437 7.22347 25.6136 4.37982Z" fill="#486E52"/>
<path d="M22.2275 14.4687L15.5356 14.4638L15.5395 7.75616C15.5399 7.45837 15.2988 7.21785 15.0024 7.21652C14.7051 7.21428 14.4631 7.45771 14.4636 7.75455L14.4569 14.4612L7.76598 14.4554C7.46777 14.4559 7.22758 14.6956 7.22628 14.9943C7.22708 15.1469 7.29077 15.2835 7.39188 15.3813C7.48827 15.4746 7.62032 15.5346 7.76524 15.5339L14.4571 15.5388L14.4532 22.2408C14.4531 22.3962 14.5158 22.5338 14.617 22.6316C14.7143 22.7257 14.8463 22.7839 14.9912 22.7814C15.2885 22.7836 15.5305 22.5421 15.5309 22.2424L15.5358 15.5395L22.2277 15.5444C22.5241 15.5457 22.7651 15.3051 22.7674 15.0073C22.7668 14.7086 22.5229 14.4691 22.2275 14.4687Z" fill="#FAFAFA"/>
</svg>
