<svg width="24" height="25" viewBox="0 0 24 25" fill="none" xmlns="http://www.w3.org/2000/svg">
<path fill-rule="evenodd" clip-rule="evenodd" d="M16.6509 12.298C16.6509 12.298 21.6253 15.2061 22.2119 15.853C22.7984 16.5 24 24.842 24 24.842L-1.29568e-05 24.842C-1.29568e-05 24.842 0.734005 16.494 1.7881 15.853C2.84219 15.212 7.35269 12.298 7.35269 12.298C6.17612 10.939 5.48233 9.16705 5.48233 7.29205C5.48233 3.27105 8.40679 0 12.0018 0C15.5977 0 18.5221 3.27105 18.5221 7.29205C18.5221 9.17005 17.8274 10.94 16.6509 12.298ZM12.0018 0.820007C8.81091 0.820007 6.21457 3.72503 6.21457 7.29303C6.21457 9.10503 6.9155 10.837 8.14661 12.077L8.35226 12.864C8.35226 12.864 3.25613 15.988 2.52211 16.494C1.7881 17 0.894093 24.024 0.894093 24.024L8.35226 24.024H9.08537H14.9182H15.6513L22.7984 24C22.7984 24 21.9043 17 21.4788 16.494C21.0532 15.988 15.6513 12.864 15.6513 12.864L15.8569 12.077C17.0872 10.841 17.789 9.10603 17.789 7.29303C17.789 3.72403 15.1927 0.820007 12.0018 0.820007Z" fill="#486E52"/>
</svg>
